<svg xmlns:xlink="http://www.w3.org/1999/xlink" xmlns="http://www.w3.org/2000/svg" width="312.5" height="312.5" viewBox="0 0 312.5 312.5" class="css-1j8o68f"><defs id="SvgjsDefs1015"></defs><g id="SvgjsG1016" featurekey="rootContainer" transform="matrix(6.451280116834951,0,0,6.451280116834951,0,0)" fill="#4A266A"><path xmlns="http://www.w3.org/2000/svg" d="M24.22 48.44a24.22 24.22 0 1 1 24.22-24.22 24.25 24.25 0 0 1-24.22 24.22zm0-47.62a23.4 23.4 0 1 0 23.4 23.4A23.43 23.43 0 0 0 24.22.82z" fill="#4A266A"></path><path xmlns="http://www.w3.org/2000/svg" d="M24.22 46.19a22 22 0 1 1 22-22 22 22 0 0 1-22 22zm0-43.67a21.7 21.7 0 1 0 21.7 21.7 21.72 21.72 0 0 0-21.7-21.71z" fill="#4A266A"></path></g><g id="SvgjsG1017" featurekey="symbolFeature-0" transform="matrix(0.8372938777204989,0,0,0.8372938777204989,114.3521104319604,72.72980130347602)" fill="#7F4A88"><g xmlns="http://www.w3.org/2000/svg" fill="#7F4A88"><g fill="#7F4A88"><circle cx="34" cy="45.5" r="2.3" fill="#7F4A88"></circle><circle cx="45.1" cy="78.9" r="2.3" fill="#7F4A88"></circle><circle cx="56.3" cy="56.6" r="2.3" fill="#7F4A88"></circle><circle cx="56.3" cy="67.7" r="2.3" fill="#7F4A88"></circle><circle cx="34" cy="67.7" r="2.3" fill="#7F4A88"></circle><circle cx="45.1" cy="56.6" r="2.3" fill="#7F4A88"></circle><circle cx="67.4" cy="56.6" r="2.3" fill="#7F4A88"></circle><circle cx="67.4" cy="45.5" r="2.3" fill="#7F4A88"></circle><path d="M83.7,26.3c0-0.8-0.3-1.6-0.9-2.2L66,6.1c-0.6-0.7-1.5-1-2.4-1h-42c-2.9,0-5.3,2.4-5.3,5.3v79.3c0,2.9,2.4,5.3,5.3,5.3    h56.9c2.9,0,5.3-2.4,5.3-5.3L83.7,26.3z M56.3,42.1c1.8,0,3.3,1.5,3.3,3.3c0,1.8-1.5,3.3-3.3,3.3c-1.8,0-3.3-1.5-3.3-3.3    C52.9,43.6,54.4,42.1,56.3,42.1z M34,42.1c1.8,0,3.3,1.5,3.3,3.3c0,1.8-1.5,3.3-3.3,3.3c-1.8,0-3.3-1.5-3.3-3.3    C30.7,43.6,32.2,42.1,34,42.1z M34,53.3c1.8,0,3.3,1.5,3.3,3.3c0,1.8-1.5,3.3-3.3,3.3c-1.8,0-3.3-1.5-3.3-3.3    C30.7,54.8,32.2,53.3,34,53.3z M34,82.2c-1.8,0-3.3-1.5-3.3-3.3c0-1.8,1.5-3.3,3.3-3.3c1.8,0,3.3,1.5,3.3,3.3    C37.4,80.7,35.9,82.2,34,82.2z M45.1,59.9c-0.9,0-1.8-0.4-2.4-1l0.4,0.4l-6.4,6.4l-0.3-0.3c0.6,0.6,0.9,1.4,0.9,2.3    c0,0.9-0.4,1.7-0.9,2.3l0.3-0.3l6.4,6.4l-0.3,0.3c0.6-0.6,1.4-0.9,2.3-0.9c1.8,0,3.3,1.5,3.3,3.3c0,1.8-1.5,3.3-3.3,3.3    s-3.3-1.5-3.3-3.3c0-0.9,0.4-1.7,0.9-2.3l-0.3,0.3L36,70.4l0.3-0.3c-0.6,0.6-1.4,0.9-2.3,0.9c-1.8,0-3.3-1.5-3.3-3.3    c0-1.8,1.5-3.3,3.3-3.3c0.9,0,1.7,0.4,2.3,0.9L36,65l6.4-6.4l0.4,0.4c-0.6-0.6-1-1.4-1-2.4c0-0.9,0.3-1.6,0.9-2.2l-0.2,0.2    L36,48.2l0.7-0.7l6.4,6.4l-0.2,0.2c0.6-0.5,1.4-0.9,2.2-0.9c1.8,0,3.3,1.5,3.3,3.3C48.5,58.4,47,59.9,45.1,59.9z M48.5,67.7    c0,1.8-1.5,3.3-3.3,3.3s-3.3-1.5-3.3-3.3c0-1.8,1.5-3.3,3.3-3.3S48.5,65.9,48.5,67.7z M45.1,48.8c-1.8,0-3.3-1.5-3.3-3.3    c0-1.8,1.5-3.3,3.3-3.3s3.3,1.5,3.3,3.3C48.5,47.3,47,48.8,45.1,48.8z M52.9,57.1h-4.5v-1h4.5V57.1z M56.3,82.2    c-1.8,0-3.3-1.5-3.3-3.3c0-1.8,1.5-3.3,3.3-3.3c1.8,0,3.3,1.5,3.3,3.3C59.6,80.7,58.1,82.2,56.3,82.2z M56.3,71.1    c-1.8,0-3.3-1.5-3.3-3.3c0-1.8,1.5-3.3,3.3-3.3h-0.5v-4.4h1v4.4h-0.5c1.8,0,3.3,1.5,3.3,3.3C59.6,69.6,58.1,71.1,56.3,71.1z     M67.4,82.2c-1.8,0-3.3-1.5-3.3-3.3c0-1.8,1.5-3.3,3.3-3.3c1.8,0,3.3,1.5,3.3,3.3C70.8,80.7,69.3,82.2,67.4,82.2z M67.4,71.1    c-1.8,0-3.3-1.5-3.3-3.3c0-1.8,1.5-3.3,3.3-3.3c1.8,0,3.3,1.5,3.3,3.3C70.8,69.6,69.3,71.1,67.4,71.1z M67.4,59.9    c-1.8,0-3.3-1.5-3.3-3.3v0.5h-4.5v-0.5c0,1.8-1.5,3.3-3.3,3.3c-1.8,0-3.3-1.5-3.3-3.3c0-1.8,1.5-3.3,3.3-3.3    c0.9,0,1.7,0.4,2.3,0.9l-0.3-0.3l6.4-6.4l0.7,0.7L59,54.6l-0.3-0.3c0.6,0.6,0.9,1.4,0.9,2.3v-0.5h4.5v0.5c0-1.8,1.5-3.3,3.3-3.3    c1.8,0,3.3,1.5,3.3,3.3C70.8,58.4,69.3,59.9,67.4,59.9z M66.9,53.3v-4.4h1v4.4H66.9z M67.4,48.8c-1.8,0-3.3-1.5-3.3-3.3    c0-1.8,1.5-3.3,3.3-3.3s3.3,1.5,3.3,3.3C70.8,47.3,69.3,48.8,67.4,48.8z M79.1,27.3h-11c-2.9,0-5.3-2.4-5.3-5.3V10.2    c0-0.3,0.4-0.4,0.6-0.2l16,16.7C79.5,26.9,79.4,27.3,79.1,27.3z" fill="#7F4A88"></path></g></g></g><g id="SvgjsG1018" featurekey="nameFeature-0" transform="matrix(1.129420263904789,0,0,1.129420263904789,54.64469751438272,158.44695791024162)" fill="#4A266A"><path d="M1.2 40 l0 -4.48 l0.84 -0.56 l0 -17.92 l-0.84 -0.56 l0 -4.48 l6.2 0 l5.84 14.96 l0 -9.92 l-0.84 -0.56 l0 -4.48 l6.72 0 l0 4.48 l-0.84 0.56 l0 22.96 l-5.36 0 l-5.84 -14.96 l0 9.92 l0.84 0.56 l0 4.48 l-6.72 0 z M25.817999999999998 40 l-3.72 -3.72 l0 -20.56 l3.72 -3.72 l9.08 0 l3.72 3.72 l0 20.56 l-3.72 3.72 l-9.08 0 z M27.898 34.96 l4.92 0 l0.76 -0.76 l0 -16.4 l-0.76 -0.76 l-4.92 0 l-0.76 0.76 l0 16.4 z M41.596000000000004 40 l0 -4.48 l0.84 -0.56 l0 -17.92 l-0.84 -0.56 l0 -4.48 l6.2 0 l4.16 10.6 l4.16 -10.6 l6.2 0 l0 4.48 l-0.84 0.56 l0 17.92 l0.84 0.56 l0 4.48 l-6.72 0 l0 -4.48 l0.84 -0.56 l0 -9.96 l-2.48 6.32 l-4 0 l-2.48 -6.32 l0 9.96 l0.84 0.56 l0 4.48 l-6.72 0 z M65.294 40 l0 -4.48 l0.84 -0.56 l0 -17.92 l-0.84 -0.56 l0 -4.48 l6.72 0 l0 4.48 l-0.84 0.56 l0 17.92 l0.84 0.56 l0 4.48 l-6.72 0 z M74.992 40 l0 -4.48 l0.84 -0.56 l0 -17.92 l-0.84 -0.56 l0 -4.48 l6.2 0 l5.84 14.96 l0 -9.92 l-0.84 -0.56 l0 -4.48 l6.72 0 l0 4.48 l-0.84 0.56 l0 22.96 l-5.36 0 l-5.84 -14.96 l0 9.92 l0.84 0.56 l0 4.48 l-6.72 0 z M95.09 40 l0 -4.48 l0.84 -0.56 l3.64 -17.92 l-0.84 -0.56 l0 -4.48 l10.64 0 l0 4.48 l-0.84 0.56 l3.64 17.92 l0.84 0.56 l0 4.48 l-4.96 0 l-1.24 -6.16 l-5.52 0 l-1.24 6.16 l-4.96 0 z M102.33 28.8 l3.44 0 l-1.72 -8.56 z M122.16600000000001 40 l0 -4.48 l0.84 -0.56 l3.64 -17.92 l-0.84 -0.56 l0 -4.48 l10.64 0 l0 4.48 l-0.84 0.56 l3.64 17.92 l0.84 0.56 l0 4.48 l-4.96 0 l-1.24 -6.16 l-5.52 0 l-1.24 6.16 l-4.96 0 z M129.406 28.8 l3.44 0 l-1.72 -8.56 z M142.26399999999998 40 l0 -4.48 l0.84 -0.56 l0 -17.92 l-0.84 -0.56 l0 -4.48 l12.8 0 l3.72 3.72 l0 10.76 l-3.72 3.72 l-6.92 0 l0 4.76 l0.84 0.56 l0 4.48 l-6.72 0 z M148.144 25.16 l4.84 0 l0.76 -0.76 l0 -6.6 l-0.76 -0.76 l-4.84 0 l0 8.12 z M161.76199999999997 40 l0 -4.48 l0.84 -0.56 l0 -17.92 l-0.84 -0.56 l0 -4.48 l12.8 0 l3.72 3.72 l0 10.76 l-3.72 3.72 l-6.92 0 l0 4.76 l0.84 0.56 l0 4.48 l-6.72 0 z M167.642 25.16 l4.84 0 l0.76 -0.76 l0 -6.6 l-0.76 -0.76 l-4.84 0 l0 8.12 z" fill="#4A266A"></path></g><g id="SvgjsG1019" featurekey="sloganFeature-0" transform="matrix(0.7209285647037317,0,0,0.7209285647037317,110.56744292993088,213.4911685810804)" fill="#7F4A88"><path d="M3.12 20 l0 -2.24 l0.42 -0.28 l0 -8.96 l-0.42 0 l-0.28 0.42 l-2.24 0 l0 -2.94 l8.4 0 l0 2.94 l-2.24 0 l-0.28 -0.42 l-0.42 0 l0 8.96 l0.42 0.28 l0 2.24 l-3.36 0 z M12.48 20 l-1.86 -1.86 l0 -9.62 l-0.42 -0.28 l0 -2.24 l3.36 0 l0 2.24 l-0.42 0.28 l0 8.58 l0.38 0.38 l2.32 0 l0.38 -0.38 l0 -8.58 l-0.42 -0.28 l0 -2.24 l3.36 0 l0 2.24 l-0.42 0.28 l0 9.62 l-1.86 1.86 l-4.4 0 z M23.96 20 l0 -2.24 l0.42 -0.28 l0 -8.96 l-0.42 -0.28 l0 -2.24 l3.1 0 l2.92 7.48 l0 -4.96 l-0.42 -0.28 l0 -2.24 l3.36 0 l0 2.24 l-0.42 0.28 l0 11.48 l-2.68 0 l-2.92 -7.48 l0 4.96 l0.42 0.28 l0 2.24 l-3.36 0 z M35.98 20 l-1.86 -1.86 l0 -10.28 l1.86 -1.86 l4.54 0 l1.86 1.86 l0 10.28 l-1.86 1.86 l-4.54 0 z M37.019999999999996 17.48 l2.46 0 l0.38 -0.38 l0 -8.2 l-0.38 -0.38 l-2.46 0 l-0.38 0.38 l0 8.2 z M43.58 20 l0 -2.24 l0.42 -0.28 l0 -8.96 l-0.42 -0.28 l0 -2.24 l3.1 0 l2.08 5.3 l2.08 -5.3 l3.1 0 l0 2.24 l-0.42 0.28 l0 8.96 l0.42 0.28 l0 2.24 l-3.36 0 l0 -2.24 l0.42 -0.28 l0 -4.98 l-1.24 3.16 l-2 0 l-1.24 -3.16 l0 4.98 l0.42 0.28 l0 2.24 l-3.36 0 z M55.14 20 l0 -2.24 l0.42 -0.28 l0 -8.96 l-0.42 -0.28 l0 -2.24 l3.36 0 l0 2.24 l-0.42 0.28 l0 8.96 l0.42 0.28 l0 2.24 l-3.36 0 z M59.7 20 l0 -2.24 l0.42 -0.28 l0 -8.96 l-0.42 -0.28 l0 -2.24 l3.1 0 l2.92 7.48 l0 -4.96 l-0.42 -0.28 l0 -2.24 l3.36 0 l0 2.24 l-0.42 0.28 l0 11.48 l-2.68 0 l-2.92 -7.48 l0 4.96 l0.42 0.28 l0 2.24 l-3.36 0 z M69.46000000000001 20 l0 -2.24 l0.42 -0.28 l1.82 -8.96 l-0.42 -0.28 l0 -2.24 l5.32 0 l0 2.24 l-0.42 0.28 l1.82 8.96 l0.42 0.28 l0 2.24 l-2.48 0 l-0.62 -3.08 l-2.76 0 l-0.62 3.08 l-2.48 0 z M73.08 14.4 l1.72 0 l-0.86 -4.28 z M82.42 20 l0 -2.24 l0.42 -0.28 l1.82 -8.96 l-0.42 -0.28 l0 -2.24 l5.32 0 l0 2.24 l-0.42 0.28 l1.82 8.96 l0.42 0.28 l0 2.24 l-2.48 0 l-0.62 -3.08 l-2.76 0 l-0.62 3.08 l-2.48 0 z M86.03999999999999 14.4 l1.72 0 l-0.86 -4.28 z M92.17999999999999 20 l0 -2.24 l0.42 -0.28 l0 -8.96 l-0.42 -0.28 l0 -2.24 l3.36 0 l0 2.24 l-0.42 0.28 l0 8.96 l1.4 0 l0.28 -0.42 l2.24 0 l0 2.94 l-6.86 0 z M103.83999999999999 20 l0 -2.24 l0.42 -0.28 l0 -8.96 l-0.42 -0.28 l0 -2.24 l6.68 0 l1.86 1.86 l0 10.28 l-1.86 1.86 l-6.68 0 z M106.78 17.48 l2.7 0 l0.38 -0.38 l0 -8.2 l-0.38 -0.38 l-2.7 0 l0 8.96 z M113.57999999999998 20 l0 -2.24 l0.42 -0.28 l0 -8.96 l-0.42 -0.28 l0 -2.24 l3.36 0 l0 2.24 l-0.42 0.28 l0 8.96 l0.42 0.28 l0 2.24 l-3.36 0 z M113.91999999999999 5.4399999999999995 l0.72 -1.96 l1.96 0 l-1.26 1.96 l-1.42 0 z M117.74 20 l0 -2.24 l0.42 -0.28 l1.82 -8.96 l-0.42 -0.28 l0 -2.24 l5.32 0 l0 2.24 l-0.42 0.28 l1.82 8.96 l0.42 0.28 l0 2.24 l-2.48 0 l-0.62 -3.08 l-2.76 0 l-0.62 3.08 l-2.48 0 z M121.35999999999999 14.4 l1.72 0 l-0.86 -4.28 z" fill="#7F4A88"></path></g></svg>